<?xml version="1.0" encoding="utf-8"?>
<!-- Generator: Adobe Illustrator 27.5.0, SVG Export Plug-In . SVG Version: 6.00 Build 0)  -->
<svg version="1.1" id="Layer_1" xmlns="http://www.w3.org/2000/svg" xmlns:xlink="http://www.w3.org/1999/xlink" x="0px" y="0px"
	 viewBox="0 0 4000 4000" style="enable-background:new 0 0 4000 4000;" xml:space="preserve">
<g>
	<g>
		<rect style="fill:#CCEEFF;" width="4000" height="4000"/>
	</g>
	<g>
		<g style="opacity:0.3;">
			<path style="fill:#390075;" d="M3355.974,2028.338l-2.671-2.685c-25.713-25.874-59.961-40.186-96.436-40.303
				c-0.151,0-0.298,0-0.449,0c-36.294,0-70.449,14.075-96.211,39.663l-66.236,65.498v-341.524
				c21.469-4.86,41.265-17.394,54.81-36.833l67.622-97.068c28.813-41.362,18.604-98.452-22.754-127.266l-99.678-69.44V1233.76
				c0-32.479-26.35-58.882-58.883-58.882H1136.488c-32.533,0-58.936,26.403-58.936,58.882v1898.654
				c0,32.533,26.403,58.883,58.936,58.883h1898.601c32.533,0,58.883-26.35,58.883-58.883v-652.464l261.392-258.478
				C3408.777,2168.396,3409.05,2081.758,3355.974,2028.338z"/>
		</g>
		<g>
			<path style="fill:#40A3DB;" d="M3028.45,1135.65V3034.3c0,32.55-26.3,58.9-58.85,58.9H1071c-32.55,0-58.95-26.35-58.95-58.9
				V1135.65c0-32.45,26.4-58.85,58.95-58.85h1898.6C3002.15,1076.8,3028.45,1103.2,3028.45,1135.65z"/>
		</g>
		<g style="opacity:0.55;">
			<path style="fill:#FFFFFF;" d="M3022.863,1110.512c-6.022-2.097-12.476-3.227-19.197-3.227H1105.011
				c-32.479,0-58.882,26.349-58.882,58.883v1898.601c0,9.034,2.043,17.584,5.646,25.22c-23.123-7.958-39.685-29.845-39.685-55.656
				V1135.678c0-32.533,26.349-58.883,58.883-58.883h1898.654C2993.18,1076.795,3013.452,1090.561,3022.863,1110.512z"/>
		</g>
		<g>
			<path style="fill:#390075;" d="M2969.618,3110.717H1070.981c-42.124,0-76.394-34.272-76.394-76.396V1135.682
				c0-42.124,34.27-76.392,76.394-76.392h1898.638c42.124,0,76.394,34.267,76.394,76.392V3034.32
				C3046.012,3076.444,3011.742,3110.717,2969.618,3110.717z M1070.981,1094.291c-22.825,0-41.394,18.569-41.394,41.392V3034.32
				c0,22.827,18.569,41.396,41.394,41.396h1898.638c22.825,0,41.394-18.569,41.394-41.396V1135.682
				c0-22.822-18.569-41.392-41.394-41.392H1070.981z"/>
		</g>
		<g>
			<g>
				<path style="fill:#FFFFFF;" d="M2899.936,2972.118H1140.663c-4.128,0-7.476-3.345-7.476-7.476V1205.37
					c0-4.131,3.347-7.476,7.476-7.476h1759.272c4.128,0,7.476,3.345,7.476,7.476v1759.272
					C2907.411,2968.773,2904.064,2972.118,2899.936,2972.118z M1148.139,2957.167H2892.46V1212.845H1148.139V2957.167z"/>
			</g>
			<g style="opacity:0.46;">
				<path style="fill:#FFFFFF;" d="M2899.948,2087.494H1140.651c-1.377,0-2.493-1.113-2.493-2.49c0-1.377,1.116-2.49,2.493-2.49
					h1759.297c1.377,0,2.493,1.113,2.493,2.49C2902.441,2086.381,2901.325,2087.494,2899.948,2087.494z"/>
			</g>
			<g style="opacity:0.46;">
				<path style="fill:#FFFFFF;" d="M2899.948,1728.637H1140.651c-1.377,0-2.493-1.113-2.493-2.49c0-1.377,1.116-2.49,2.493-2.49
					h1759.297c1.377,0,2.493,1.113,2.493,2.49C2902.441,1727.523,2901.325,1728.637,2899.948,1728.637z"/>
			</g>
			<g style="opacity:0.46;">
				<path style="fill:#FFFFFF;" d="M2899.948,1369.779H1140.651c-1.377,0-2.493-1.113-2.493-2.49s1.116-2.49,2.493-2.49h1759.297
					c1.377,0,2.493,1.113,2.493,2.49S2901.325,1369.779,2899.948,1369.779z"/>
			</g>
			<g style="opacity:0.46;">
				<path style="fill:#FFFFFF;" d="M2899.948,2446.351H1140.651c-1.377,0-2.493-1.113-2.493-2.49s1.116-2.49,2.493-2.49h1759.297
					c1.377,0,2.493,1.113,2.493,2.49S2901.325,2446.351,2899.948,2446.351z"/>
			</g>
			<g style="opacity:0.46;">
				<path style="fill:#FFFFFF;" d="M2899.948,2805.204H1140.651c-1.377,0-2.493-1.113-2.493-2.49c0-1.377,1.116-2.49,2.493-2.49
					h1759.297c1.377,0,2.493,1.114,2.493,2.49C2902.441,2804.091,2901.325,2805.204,2899.948,2805.204z"/>
			</g>
			<g style="opacity:0.46;">
				<path style="fill:#FFFFFF;" d="M2233.967,2967.142c-1.377,0-2.493-1.113-2.493-2.49V1205.355c0-1.377,1.116-2.49,2.493-2.49
					s2.493,1.113,2.493,2.49v1759.297C2236.459,2966.029,2235.344,2967.142,2233.967,2967.142z"/>
			</g>
			<g style="opacity:0.46;">
				<path style="fill:#FFFFFF;" d="M1875.109,2967.142c-1.377,0-2.493-1.113-2.493-2.49V1205.355c0-1.377,1.116-2.49,2.493-2.49
					c1.377,0,2.493,1.113,2.493,2.49v1759.297C1877.602,2966.029,1876.486,2967.142,1875.109,2967.142z"/>
			</g>
			<g style="opacity:0.46;">
				<path style="fill:#FFFFFF;" d="M1516.254,2967.142c-1.377,0-2.493-1.113-2.493-2.49V1205.355c0-1.377,1.116-2.49,2.493-2.49
					s2.493,1.113,2.493,2.49v1759.297C1518.747,2966.029,1517.631,2967.142,1516.254,2967.142z"/>
			</g>
			<g style="opacity:0.46;">
				<path style="fill:#FFFFFF;" d="M2592.822,2967.142c-1.377,0-2.493-1.113-2.493-2.49V1205.355c0-1.377,1.116-2.49,2.493-2.49
					s2.493,1.113,2.493,2.49v1759.297C2595.314,2966.029,2594.198,2967.142,2592.822,2967.142z"/>
			</g>
			<g style="opacity:0.46;">
				<path style="fill:#FFFFFF;" d="M2899.936,2087.494H1354.308c-1.377,0-2.493-1.113-2.493-2.49c0-1.377,1.116-2.49,2.493-2.49
					h1545.627c1.377,0,2.493,1.113,2.493,2.49C2902.428,2086.381,2901.313,2087.494,2899.936,2087.494z"/>
			</g>
			<g style="opacity:0.46;">
				<path style="fill:#FFFFFF;" d="M2899.936,1728.661H1354.308c-1.377,0-2.493-1.113-2.493-2.49c0-1.377,1.116-2.49,2.493-2.49
					h1545.627c1.377,0,2.493,1.113,2.493,2.49C2902.428,1727.548,2901.313,1728.661,2899.936,1728.661z"/>
			</g>
			<g style="opacity:0.46;">
				<path style="fill:#FFFFFF;" d="M2899.936,1369.774H1354.308c-1.377,0-2.493-1.113-2.493-2.49s1.116-2.49,2.493-2.49h1545.627
					c1.377,0,2.493,1.113,2.493,2.49S2901.313,1369.774,2899.936,1369.774z"/>
			</g>
			<g style="opacity:0.46;">
				<path style="fill:#FFFFFF;" d="M2899.936,2446.332H1354.308c-1.377,0-2.493-1.113-2.493-2.49s1.116-2.49,2.493-2.49h1545.627
					c1.377,0,2.493,1.113,2.493,2.49S2901.313,2446.332,2899.936,2446.332z"/>
			</g>
			<g style="opacity:0.46;">
				<path style="fill:#FFFFFF;" d="M2899.936,2805.219H1354.308c-1.377,0-2.493-1.113-2.493-2.49c0-1.377,1.116-2.49,2.493-2.49
					h1545.627c1.377,0,2.493,1.113,2.493,2.49C2902.428,2804.105,2901.313,2805.219,2899.936,2805.219z"/>
			</g>
		</g>
		<g>
			<path style="fill:#FFFFFF;" d="M2009.797,2605.848h-477.224c-49.302,0-89.409-40.107-89.409-89.409v-885.82
				c0-49.302,40.107-89.409,89.409-89.409h477.224c49.299,0,89.407,40.107,89.407,89.409v885.82
				C2099.203,2565.741,2059.096,2605.848,2009.797,2605.848z M1532.573,1568.095c-34.475,0-62.524,28.047-62.524,62.524v885.82
				c0,34.478,28.049,62.524,62.524,62.524h477.224c34.475,0,62.522-28.047,62.522-62.524v-885.82
				c0-34.478-28.047-62.524-62.522-62.524H1532.573z"/>
		</g>
		<g>
			<path style="fill:#FFFFFF;" d="M2471.142,1774.701h-245.41c-5.94,0-10.754-4.819-10.754-10.757s4.814-10.757,10.754-10.757
				h245.41c5.94,0,10.754,4.819,10.754,10.757S2477.082,1774.701,2471.142,1774.701z"/>
		</g>
		<g>
			<path style="fill:#FFFFFF;" d="M2574.811,1839.232h-349.08c-5.94,0-10.754-4.819-10.754-10.757s4.814-10.757,10.754-10.757
				h349.08c5.94,0,10.754,4.819,10.754,10.757S2580.751,1839.232,2574.811,1839.232z"/>
		</g>
		<g>
			<path style="fill:#FFFFFF;" d="M2574.811,1903.759h-349.08c-5.94,0-10.754-4.819-10.754-10.757s4.814-10.757,10.754-10.757
				h349.08c5.94,0,10.754,4.819,10.754,10.757S2580.751,1903.759,2574.811,1903.759z"/>
		</g>
		<g>
			<path style="fill:#FFFFFF;" d="M2574.811,2206.254h-349.08c-5.94,0-10.754-4.82-10.754-10.757s4.814-10.757,10.754-10.757h349.08
				c5.94,0,10.754,4.819,10.754,10.757S2580.751,2206.254,2574.811,2206.254z"/>
		</g>
		<g>
			<path style="fill:#FFFFFF;" d="M2471.142,2271.215h-245.41c-5.94,0-10.754-4.819-10.754-10.757s4.814-10.757,10.754-10.757
				h245.41c5.94,0,10.754,4.82,10.754,10.757S2477.082,2271.215,2471.142,2271.215z"/>
		</g>
		<g>
			<path style="fill:#FFFFFF;" d="M1795.38,2026.542c-1.899,0-3.804-0.664-5.339-2.021c-3.337-2.949-3.652-8.047-0.703-11.387
				l224.917-254.531c1.531-1.733,3.733-2.725,6.045-2.725h140.747c4.456,0,8.066,3.613,8.066,8.066s-3.611,8.066-8.066,8.066
				h-137.112l-222.507,251.807C1799.833,2025.619,1797.611,2026.542,1795.38,2026.542z"/>
		</g>
		<g>
			<path style="fill:#FFFFFF;" d="M2161.047,2203.563h-215.098c-4.455,0-8.066-3.613-8.066-8.066s3.611-8.066,8.066-8.066h215.098
				c4.456,0,8.066,3.613,8.066,8.066S2165.502,2203.563,2161.047,2203.563z"/>
		</g>
		<g style="opacity:0.3;">
			<g>
				<path style="fill:#390075;" d="M3028.45,2155.3v389.45L2678.6,2890.7c-8.75,8.7-19.7,15-31.65,18.15l-222.4,58.8
					c-1.35,0.35-2.75,0.5-4.1,0.5c-4.25,0-8.4-1.65-11.45-4.75c-4.1-4.1-5.65-10-4.15-15.6l60.25-222
					c3.2-11.95,9.55-22.85,18.3-31.55L3028.45,2155.3z"/>
			</g>
			<g>
				<path style="fill:#390075;" d="M3028.45,1415.005v366.6c-2.35-1.35-4.7-2.8-6.95-4.4l-267-186c-20-13.95-33.4-34.9-37.7-58.9
					c-4.3-24.05,1-48.35,14.95-68.35l67.65-97.1c13.95-20,34.85-33.4,58.9-37.7c24.05-4.3,48.3,1,68.35,14.95L3028.45,1415.005z"/>
			</g>
		</g>
		<g style="opacity:0.3;">
			<path style="fill:#390075;" d="M1918.7,1076.8h-560l387.95,156.95l-734.6,309.9v227.95l1284.5-541.95L1918.7,1076.8z
				 M1071,1076.8c-32.55,0-58.95,26.4-58.95,58.85v377.15l173.6-436H1071z"/>
		</g>
		<g>
			<g style="opacity:0.3;">
				<path style="fill:#5F5A57;stroke:#390075;stroke-width:0;stroke-miterlimit:10;" d="M2540.828,2811.549
					c2.641,5.357,5.549,10.572,8.727,15.643C2546.445,2822.085,2543.484,2816.855,2540.828,2811.549z"/>
			</g>
			<g style="opacity:0.3;">
				<path style="fill:#5F5A57;stroke:#390075;stroke-width:0;stroke-miterlimit:10;" d="M2540.828,2811.549
					c-3.719-7.541-7.034-15.296-9.777-23.27C2533.742,2796.238,2536.991,2804.029,2540.828,2811.549z"/>
			</g>
			<g style="opacity:0.3;">
				<path style="fill:#5F5A57;stroke:#390075;stroke-width:0;stroke-miterlimit:10;" d="M2529.108,2782.291
					c-1.245-4.033-2.372-8.086-3.313-12.195C2526.685,2774.189,2527.812,2778.242,2529.108,2782.291z"/>
			</g>
			<g>
				<path style="fill:#1EBC61;" d="M2406.517,2667.271l-60.25,222.016l222.424-58.853c7.94-2.079,15.24-5.927,21.412-11.243
					c1.049-0.861,2.011-1.804,2.973-2.748l624.308-617.044l52.476-52.148c47.169-46.906,47.388-123.12,0.549-170.325l-2.724-2.685
					c-46.855-47.154-123.104-47.44-170.274-0.534l-59.158,58.77L2420.628,2642.9c-0.962,0.944-1.872,1.903-2.747,2.93
					C2412.514,2652.009,2408.657,2659.322,2406.517,2667.271z"/>
			</g>
			<g>
				<path style="fill:#F8BF71;stroke:#390075;stroke-width:0;stroke-miterlimit:10;" d="M2406.517,2667.271l-60.25,222.016
					l222.424-58.853c7.94-2.079,15.24-5.927,21.412-11.243c36.451-45.673-126.215-209.436-172.222-173.362
					C2412.514,2652.009,2408.657,2659.322,2406.517,2667.271z"/>
			</g>
			<g>
				<path style="fill:#F4CB00;" d="M2970.467,2099.837l0.041-0.12c43.722-43.445,216.245,130.178,172.523,173.623l-0.121,0.04
					l56.67-56.311l0.121-0.04c43.722-43.445-128.801-217.068-172.523-173.623l-0.04,0.121L2970.467,2099.837z"/>
			</g>
			<g>
				<path style="fill:#F22525;" d="M3038.254,2032.478c89.123,32.032,144.974,90.808,179.13,166.922l52.476-52.148
					c47.169-46.906,47.388-123.12,0.549-170.325l-2.724-2.685c-46.855-47.154-123.104-47.44-170.274-0.534L3038.254,2032.478z"/>
			</g>
			<g style="opacity:0.55;">
				<path style="fill:#FFFFFF;" d="M2393.194,2663.214l-60.25,222.016l56.678-15.005l41.617-153.265
					c2.139-7.949,5.997-15.262,11.364-21.441c0.875-1.027,1.785-1.986,2.747-2.93l617.625-610.423l59.158-58.77
					c44.765-44.547,115.749-46.538,162.9-6.265c-5.763-16.146-15.09-31.297-27.948-44.263l-2.724-2.685
					c-46.855-47.154-123.104-47.44-170.274-0.534l-59.158,58.77l-617.625,610.422c-0.962,0.944-1.873,1.903-2.747,2.93
					C2399.191,2647.951,2395.333,2655.265,2393.194,2663.214z"/>
			</g>
			<g style="opacity:0.3;">
				<path style="fill:#390075;" d="M2364.497,2822.044l-18.23,67.243l222.424-58.853c7.94-2.079,15.24-5.927,21.412-11.243
					c1.049-0.861,2.011-1.804,2.973-2.748l624.308-617.044l52.476-52.148c47.169-46.906,47.388-123.12,0.549-170.325l-2.724-2.685
					c-7.094-7.163-14.872-13.186-23.134-18.175c23.849,45.544,16.558,103.077-21.824,141.248l-52.476,52.148l-624.308,617.044
					c-0.962,0.944-1.924,1.887-2.973,2.749c-6.172,5.315-13.471,9.163-21.411,11.242L2364.497,2822.044z"/>
			</g>
			<g>
				<path style="fill:#390075;" d="M2346.281,2905.394c-4.241,0-8.376-1.675-11.443-4.761c-4.063-4.087-5.635-10.034-4.126-15.596
					l60.222-222.017c3.235-11.924,9.578-22.832,18.342-31.543l676.78-669.238c25.764-25.591,59.919-39.668,96.216-39.668
					c0.149,0,0.298,0,0.447,0c36.475,0.117,70.723,14.429,96.436,40.303l2.673,2.691c53.076,53.418,52.8,140.054-0.615,193.13
					l-676.782,669.238c-8.735,8.687-19.683,14.961-31.631,18.115l-222.395,58.809
					C2349.042,2905.219,2347.656,2905.394,2346.281,2905.394z M3182.277,1954.838c-27.734,0-53.826,10.757-73.506,30.318
					c-0.01,0.005-0.02,0.015-0.029,0.024l-676.753,669.214c-4.724,4.698-8.162,10.611-9.917,17.075l-52.908,195.054l195.391-51.665
					c6.477-1.714,12.41-5.112,17.158-9.834L3258.5,2135.78c40.767-40.508,40.977-106.675,0.442-147.471l-2.673-2.69
					c-19.639-19.761-45.793-30.693-73.652-30.781C3182.504,1954.838,3182.389,1954.838,3182.277,1954.838z M3097.399,1973.71h0.049
					H3097.399z"/>
			</g>
			<g>
				<path style="fill:#390075;" d="M2375.021,2783.305l-28.74,105.958l106.139-28.066
					C2432.475,2832.811,2403.28,2803.43,2375.021,2783.305z"/>
			</g>
			<g>
				<path style="fill:#390075;" d="M3199.679,2230.477c-5.671,0-10.969-3.589-12.82-9.253c-1.719-5.269-0.044-10.821,3.848-14.258
					c3.809-4.487,2.72-12.661,1.082-18.843c-12.227-46.22-89.622-124.106-135.759-136.626c-6.326-1.714-14.739-2.861-19.175,1.25
					c-3.552,3.691-9.06,5.205-14.187,3.389c-6.997-2.476-10.684-10.103-8.206-17.1c0.674-1.9,1.809-3.745,3.24-5.166
					c7.439-7.392,21.353-14.839,45.369-8.32c56.006,15.195,139.868,99.59,154.712,155.693c6.367,24.063-1.167,37.93-8.608,45.323
					c-1.489,1.479-3.306,2.593-5.303,3.242C3202.482,2230.262,3201.069,2230.477,3199.679,2230.477z"/>
			</g>
			<g>
				<path style="fill:#390075;" d="M3143.01,2286.786c-5.671,0-10.969-3.589-12.82-9.253c-1.719-5.269-0.044-10.82,3.85-14.258
					c3.806-4.487,2.717-12.656,1.082-18.838c-12.224-46.216-89.622-124.106-135.762-136.626c-6.323-1.724-14.729-2.871-19.167,1.24
					c-3.508,3.657-8.943,5.19-14.033,3.452c-7.029-2.388-10.811-9.966-8.42-16.992c0.667-1.963,1.821-3.872,3.293-5.332
					c7.439-7.388,21.345-14.824,45.371-8.32c56.008,15.2,139.871,99.6,154.712,155.703c6.362,24.058-1.169,37.92-8.611,45.313
					c-1.489,1.479-3.306,2.593-5.303,3.242C3145.812,2286.571,3144.399,2286.786,3143.01,2286.786z"/>
			</g>
			<g>
				<path style="fill:#390075;" d="M2588.361,2834.672c-5.671,0-10.969-3.589-12.82-9.253c-1.719-5.269-0.044-10.82,3.848-14.258
					c3.809-4.487,2.72-12.661,1.082-18.843c-12.227-46.221-89.622-124.106-135.759-136.626c-6.326-1.714-14.739-2.861-19.175,1.25
					c-3.555,3.691-9.063,5.205-14.187,3.389c-6.997-2.476-10.684-10.102-8.206-17.1c0.674-1.899,1.809-3.745,3.24-5.166
					c7.439-7.393,21.36-14.839,45.369-8.32c56.006,15.195,139.868,99.59,154.712,155.693c6.367,24.063-1.167,37.93-8.608,45.322
					c-1.489,1.479-3.306,2.593-5.303,3.242C2591.164,2834.457,2589.75,2834.672,2588.361,2834.672z"/>
			</g>
		</g>
		<g>
			<g>
				<path style="fill:#F95AB5;" d="M2956.589,1658.896l-266.999-186.006c-34.116-23.767-42.505-70.69-18.738-104.805l67.624-97.07
					c23.767-34.116,70.69-42.505,104.805-18.738l266.999,186.006c34.116,23.767,42.505,70.69,18.738,104.805l-67.624,97.07
					C3037.627,1674.273,2990.705,1682.662,2956.589,1658.896z"/>
			</g>
			<g style="opacity:0.3;">
				<path style="fill:#390075;" d="M3129.019,1543.088l-67.624,97.07c-23.76,34.107-70.698,42.499-104.805,18.738l-266.986-185.997
					c-23.297-16.23-34.573-43.223-31.84-69.63c5.263,8.909,12.514,16.844,21.603,23.177l266.986,185.997
					c34.107,23.761,81.045,15.369,104.805-18.738l67.624-97.07c7.531-10.81,11.821-22.895,13.102-35.175
					C3146.565,1486.104,3146.447,1518.07,3129.019,1543.088z"/>
			</g>
			<g style="opacity:0.55;">
				<path style="fill:#FFFFFF;" d="M3142.269,1505.722c-5.443-11.001-13.597-20.745-24.363-28.245L2850.92,1291.48
					c-34.107-23.76-81.014-15.413-104.805,18.738l-67.624,97.07c-7.992,11.472-12.329,24.376-13.295,37.334
					c-11.789-23.811-10.591-53.188,5.669-76.529l67.624-97.07c23.761-34.107,70.699-42.499,104.805-18.738l266.986,185.997
					C3132.915,1454.051,3144.212,1480.074,3142.269,1505.722z"/>
			</g>
			<g>
				<path style="fill:#390075;" d="M2999.428,1688.563c-18.511,0-36.553-5.63-52.061-16.431l0,0l-266.997-186.006
					c-20.037-13.955-33.438-34.883-37.734-58.916c-4.297-24.038,1.021-48.311,14.978-68.345l67.625-97.075
					c28.816-41.348,85.908-51.553,127.266-22.754l266.997,186.006c41.36,28.818,51.567,85.908,22.754,127.271l-67.625,97.065
					c-13.958,20.034-34.88,33.433-58.918,37.734C3010.28,1688.08,3004.833,1688.563,2999.428,1688.563z M2965.81,1645.658
					c26.763,18.633,63.704,12.036,82.346-14.722l67.625-97.07c18.645-26.763,12.041-63.701-14.722-82.349l-266.997-186.006
					c-26.765-18.643-63.704-12.036-82.349,14.727l-67.625,97.07c-18.643,26.763-12.039,63.701,14.724,82.344L2965.81,1645.658z"/>
			</g>
		</g>
		<g>
			<g>
				<g>
					<path style="fill:#F4CB00;" d="M1025.899,682.347l-475.93,1195.734l1679.914-708.741L1025.899,682.347z M1142.947,956.184
						l537.024,217.235l-749.341,316.141L1142.947,956.184z"/>
				</g>
			</g>
			<g style="opacity:0.3;">
				<path style="fill:#390075;" d="M1025.899,682.347l-18.022,45.265l1098.227,444.186L573.792,1818.267l-23.823,59.814
					l1679.914-708.741L1025.899,682.347z"/>
			</g>
			<g style="opacity:0.65;">
				<path style="fill:#FFFFFF;" d="M1667.211,1178.802l-689.775,291.01l-0.06,0.15c-6.251,15.687,9.512,31.136,25.07,24.573
					l665.022-280.567C1683.098,1207.374,1682.936,1185.168,1667.211,1178.802L1667.211,1178.802z M1020.14,684.777L544.21,1880.511
					l52.518-22.157l459.079-1153.351l1161.314,469.721l7.002-2.954L1020.14,684.777z"/>
			</g>
			<g>
				<path style="fill:#390075;" d="M549.972,1893.08c-3.85,0-7.639-1.484-10.5-4.287c-4.319-4.229-5.674-10.64-3.438-16.26
					l475.928-1195.732c1.475-3.711,4.37-6.68,8.042-8.247c3.669-1.572,7.817-1.607,11.519-0.112l1203.984,486.992
					c5.627,2.275,9.329,7.725,9.375,13.794c0.044,6.074-3.574,11.572-9.17,13.931L555.8,1891.898
					C553.918,1892.694,551.938,1893.08,549.972,1893.08z M1034.257,701.908L577.16,1850.326l1613.44-680.693L1034.257,701.908z
					 M930.634,1504.559c-3.85,0-7.639-1.484-10.5-4.287c-4.319-4.229-5.674-10.645-3.438-16.26l212.317-533.374
					c1.477-3.711,4.37-6.68,8.042-8.247c3.672-1.572,7.817-1.602,11.519-0.112l537.024,217.232
					c5.627,2.275,9.329,7.725,9.375,13.794c0.044,6.074-3.574,11.572-9.17,13.931l-749.341,316.143
					C934.579,1504.174,932.599,1504.559,930.634,1504.559z M1151.305,975.746l-193.482,486.06l682.869-288.096L1151.305,975.746z"/>
			</g>
			<g>
				<path style="fill:#390075;" d="M930.634,1504.559c-3.85,0-7.639-1.484-10.5-4.287c-4.319-4.229-5.674-10.645-3.438-16.26
					l212.317-533.374c1.475-3.711,4.37-6.68,8.042-8.247c3.672-1.572,7.817-1.602,11.519-0.112l537.024,217.232
					c5.627,2.275,9.329,7.725,9.375,13.794c0.044,6.074-3.574,11.572-9.17,13.931l-749.341,316.143
					C934.579,1504.174,932.599,1504.559,930.634,1504.559z M1151.305,975.746l-193.482,486.06l682.869-288.096L1151.305,975.746z"/>
			</g>
			<g>
				<path style="fill:#390075;" d="M930.634,1504.559c-3.85,0-7.639-1.484-10.5-4.287c-4.319-4.229-5.674-10.645-3.438-16.26
					l212.317-533.374c1.475-3.711,4.37-6.68,8.042-8.247c3.672-1.572,7.817-1.602,11.519-0.112l537.024,217.232
					c5.627,2.275,9.329,7.725,9.375,13.794c0.044,6.074-3.574,11.572-9.17,13.931l-749.341,316.143
					C934.579,1504.174,932.599,1504.559,930.634,1504.559z M1151.305,975.746l-193.482,486.06l682.869-288.096L1151.305,975.746z"/>
			</g>
			<g>
				<path style="fill:#390075;" d="M751.122,1803.222c-3.901,0-7.607-2.3-9.219-6.118l-35.64-84.473
					c-2.146-5.088,0.239-10.952,5.327-13.101c5.093-2.144,10.955,0.244,13.101,5.327l35.64,84.473
					c2.146,5.088-0.239,10.952-5.327,13.101C753.735,1802.968,752.419,1803.222,751.122,1803.222z"/>
			</g>
			<g>
				<path style="fill:#390075;" d="M820.224,1774.071c-3.901,0-7.607-2.3-9.219-6.118l-18.794-44.551
					c-2.146-5.088,0.239-10.952,5.327-13.101c5.09-2.148,10.957,0.239,13.101,5.327l18.794,44.551
					c2.146,5.088-0.239,10.952-5.327,13.101C822.836,1773.817,821.52,1774.071,820.224,1774.071z"/>
			</g>
			<g>
				<path style="fill:#390075;" d="M889.325,1744.916c-3.901,0-7.607-2.3-9.219-6.118l-18.794-44.546
					c-2.146-5.088,0.239-10.952,5.327-13.101c5.098-2.148,10.955,0.239,13.101,5.327l18.794,44.546
					c2.146,5.088-0.239,10.952-5.327,13.1C891.938,1744.662,890.622,1744.916,889.325,1744.916z"/>
			</g>
			<g>
				<path style="fill:#390075;" d="M958.427,1715.766c-3.901,0-7.607-2.3-9.219-6.118l-18.794-44.551
					c-2.146-5.088,0.239-10.952,5.327-13.101c5.093-2.153,10.955,0.244,13.101,5.327l18.794,44.551
					c2.146,5.088-0.239,10.952-5.327,13.101C961.039,1715.512,959.723,1715.766,958.427,1715.766z"/>
			</g>
			<g>
				<path style="fill:#390075;" d="M1027.528,1686.61c-3.901,0-7.607-2.3-9.219-6.118l-35.637-84.473
					c-2.146-5.088,0.239-10.952,5.327-13.101c5.095-2.144,10.955,0.244,13.101,5.327l35.637,84.473
					c2.146,5.088-0.239,10.952-5.327,13.101C1030.141,1686.356,1028.825,1686.61,1027.528,1686.61z"/>
			</g>
			<g>
				<path style="fill:#390075;" d="M1100.785,1660.682c-3.267,0-6.37-1.924-7.72-5.122l-13.184-31.25
					c-1.797-4.263,0.2-9.175,4.463-10.972c4.253-1.792,9.172,0.195,10.972,4.458l13.184,31.25c1.797,4.263-0.2,9.175-4.463,10.972
					C1102.975,1660.468,1101.872,1660.682,1100.785,1660.682z"/>
			</g>
			<g>
				<path style="fill:#390075;" d="M1165.734,1628.304c-3.901,0-7.607-2.3-9.219-6.118l-18.796-44.551
					c-2.146-5.088,0.239-10.952,5.327-13.101c5.09-2.153,10.955,0.244,13.101,5.327l18.796,44.551
					c2.146,5.088-0.239,10.952-5.327,13.101C1168.346,1628.051,1167.031,1628.304,1165.734,1628.304z"/>
			</g>
			<g>
				<path style="fill:#390075;" d="M1234.836,1599.149c-3.901,0-7.608-2.3-9.219-6.118l-18.794-44.546
					c-2.146-5.088,0.239-10.952,5.327-13.101c5.095-2.153,10.955,0.244,13.101,5.327l18.794,44.546
					c2.146,5.088-0.239,10.952-5.327,13.1C1237.448,1598.895,1236.132,1599.149,1234.836,1599.149z"/>
			</g>
			<g>
				<path style="fill:#390075;" d="M1303.937,1569.994c-3.901,0-7.607-2.3-9.219-6.118l-35.64-84.473
					c-2.146-5.088,0.239-10.952,5.327-13.101c5.09-2.149,10.957,0.239,13.101,5.327l35.64,84.473
					c2.146,5.088-0.239,10.952-5.327,13.101C1306.55,1569.74,1305.234,1569.994,1303.937,1569.994z"/>
			</g>
			<g>
				<path style="fill:#390075;" d="M1373.039,1540.844c-3.901,0-7.607-2.3-9.219-6.118l-18.794-44.551
					c-2.146-5.088,0.239-10.952,5.327-13.101c5.098-2.144,10.957,0.244,13.101,5.327l18.794,44.551
					c2.146,5.088-0.239,10.952-5.327,13.101C1375.651,1540.59,1374.335,1540.844,1373.039,1540.844z"/>
			</g>
			<g>
				<path style="fill:#390075;" d="M1442.14,1511.688c-3.901,0-7.607-2.3-9.219-6.118l-18.794-44.546
					c-2.146-5.088,0.239-10.952,5.327-13.101c5.093-2.144,10.955,0.244,13.101,5.327l18.794,44.546
					c2.146,5.088-0.239,10.952-5.327,13.101C1444.753,1511.434,1443.437,1511.688,1442.14,1511.688z"/>
			</g>
			<g>
				<path style="fill:#390075;" d="M1511.242,1482.533c-3.901,0-7.607-2.3-9.219-6.118l-18.794-44.546
					c-2.146-5.088,0.239-10.952,5.327-13.101c5.09-2.148,10.957,0.244,13.1,5.327l18.794,44.546
					c2.146,5.088-0.239,10.952-5.327,13.101C1513.854,1482.279,1512.538,1482.533,1511.242,1482.533z"/>
			</g>
			<g>
				<path style="fill:#390075;" d="M1580.344,1453.383c-3.901,0-7.608-2.3-9.219-6.118l-35.637-84.473
					c-2.146-5.088,0.239-10.952,5.327-13.1c5.093-2.148,10.955,0.239,13.1,5.327l35.637,84.473c2.146,5.088-0.239,10.952-5.327,13.1
					C1582.956,1453.129,1581.64,1453.383,1580.344,1453.383z"/>
			</g>
			<g>
				<path style="fill:#390075;" d="M1649.448,1424.227c-3.901,0-7.607-2.3-9.219-6.118l-18.797-44.546
					c-2.146-5.088,0.237-10.952,5.327-13.101c5.093-2.143,10.955,0.244,13.101,5.327l18.796,44.546
					c2.146,5.088-0.237,10.952-5.327,13.101C1652.06,1423.974,1650.744,1424.227,1649.448,1424.227z"/>
			</g>
			<g>
				<path style="fill:#390075;" d="M1718.549,1395.077c-3.901,0-7.607-2.3-9.219-6.118l-18.794-44.551
					c-2.146-5.088,0.239-10.952,5.327-13.1c5.095-2.148,10.955,0.239,13.101,5.327l18.794,44.551
					c2.146,5.088-0.239,10.952-5.327,13.101C1721.161,1394.823,1719.845,1395.077,1718.549,1395.077z"/>
			</g>
			<g>
				<path style="fill:#390075;" d="M1787.651,1365.922c-3.901,0-7.607-2.3-9.219-6.118l-18.794-44.546
					c-2.146-5.088,0.239-10.952,5.327-13.101c5.093-2.149,10.954,0.239,13.1,5.327l18.794,44.546
					c2.146,5.088-0.239,10.952-5.327,13.101C1790.263,1365.668,1788.947,1365.922,1787.651,1365.922z"/>
			</g>
			<g>
				<path style="fill:#390075;" d="M1856.752,1336.766c-3.901,0-7.608-2.3-9.219-6.118l-35.64-84.473
					c-2.146-5.088,0.239-10.952,5.327-13.101c5.098-2.143,10.957,0.244,13.101,5.327l35.64,84.473
					c2.146,5.088-0.239,10.952-5.327,13.101C1859.365,1336.512,1858.048,1336.766,1856.752,1336.766z"/>
			</g>
			<g>
				<path style="fill:#390075;" d="M1925.854,1307.616c-3.901,0-7.607-2.3-9.219-6.118l-18.794-44.551
					c-2.146-5.088,0.239-10.952,5.327-13.101c5.095-2.148,10.955,0.239,13.101,5.327l18.794,44.551
					c2.146,5.088-0.239,10.952-5.327,13.1C1928.466,1307.362,1927.15,1307.616,1925.854,1307.616z"/>
			</g>
			<g>
				<path style="fill:#390075;" d="M1994.955,1278.461c-3.901,0-7.607-2.3-9.219-6.118l-18.794-44.546
					c-2.146-5.088,0.239-10.952,5.327-13.101c5.09-2.148,10.957,0.239,13.101,5.327l18.794,44.546
					c2.146,5.088-0.239,10.952-5.327,13.101C1997.568,1278.207,1996.252,1278.461,1994.955,1278.461z"/>
			</g>
		</g>
	</g>
</g>
</svg>
